<svg xmlns="http://www.w3.org/2000/svg" width="2600" height="1600" viewBox="0 0 2600 1600" role="img" aria-labelledby="title desc">
  <title id="title">Grafik S-Curve Proyek Konstruksi WYLCORE</title>
  <desc id="desc">Grafik S-Curve proyek konstruksi dengan garis rencana kumulatif dan realisasi kumulatif serta anotasi total delay approved Change Request.</desc>
  <defs>
    <marker id="arrow" viewBox="0 0 12 12" refX="10" refY="6" markerWidth="12" markerHeight="12" orient="auto">
      <path d="M 1 1 L 11 6 L 1 11 z" fill="#111111"/>
    </marker>
    <style>
      .bg { fill: #ffffff; }
      .title { font: 700 42px Arial, Helvetica, sans-serif; fill: #111111; letter-spacing: 0; }
      .subtitle { font: 400 20px Arial, Helvetica, sans-serif; fill: #333333; letter-spacing: 0; }
      .panel { fill: #ffffff; stroke: #111111; stroke-width: 2.2; rx: 14; }
      .panel-soft { fill: #f4f5f7; stroke: #111111; stroke-width: 1.8; rx: 10; }
      .axis { stroke: #111111; stroke-width: 2.5; }
      .grid { stroke: #d5d8df; stroke-width: 1.5; }
      .plan { fill: none; stroke: #111111; stroke-width: 5; }
      .actual { fill: none; stroke: #6b7280; stroke-width: 5; stroke-dasharray: 14 10; }
      .marker-plan { fill: #111111; stroke: #ffffff; stroke-width: 2; }
      .marker-actual { fill: #ffffff; stroke: #6b7280; stroke-width: 4; }
      .label { font: 400 16px Arial, Helvetica, sans-serif; fill: #222222; letter-spacing: 0; }
      .label-strong { font: 700 17px Arial, Helvetica, sans-serif; fill: #111111; letter-spacing: 0; }
      .small { font: 400 13.5px Arial, Helvetica, sans-serif; fill: #333333; letter-spacing: 0; }
      .tiny { font: 400 12.5px Arial, Helvetica, sans-serif; fill: #475569; letter-spacing: 0; }
      .code { font: 400 14px Consolas, 'Courier New', monospace; fill: #111111; letter-spacing: 0; }
      .callout { fill: #ffffff; stroke: #111111; stroke-width: 2; rx: 12; }
      .line { fill: none; stroke: #111111; stroke-width: 2.2; marker-end: url(#arrow); }
      .legend-line-plan { stroke: #111111; stroke-width: 5; }
      .legend-line-actual { stroke: #6b7280; stroke-width: 5; stroke-dasharray: 14 10; }
      .note { fill: #ffffff; stroke: #111111; stroke-width: 1.8; rx: 10; }
      .note-title { font: 700 18px Arial, Helvetica, sans-serif; fill: #111111; letter-spacing: 0; }
      .note-text { font: 400 14px Arial, Helvetica, sans-serif; fill: #222222; letter-spacing: 0; }
    </style>
  </defs>

  <rect class="bg" width="2600" height="1600"/>
  <text class="title" x="1300" y="72" text-anchor="middle">Grafik S-Curve Proyek Konstruksi</text>
  <text class="subtitle" x="1300" y="110" text-anchor="middle">PRJ-001 - Proyek Konstruksi Jembatan Beton Precast | Rencana vs Realisasi Kumulatif</text>

  <!-- Header cards -->
  <rect class="panel-soft" x="160" y="150" width="560" height="120"/>
  <text class="label-strong" x="190" y="190">Sumber Data</text>
  <text class="code" x="190" y="220">backend/api_get_scurve.php</text>
  <text class="small" x="190" y="248">project_scurve + approved change_requests.timeImpact</text>

  <rect class="panel-soft" x="790" y="150" width="430" height="120"/>
  <text class="label-strong" x="820" y="190">Total Delay Approved CR</text>
  <text class="title" x="820" y="242">3 hari</text>

  <rect class="panel-soft" x="1290" y="150" width="430" height="120"/>
  <text class="label-strong" x="1320" y="190">Realisasi Terakhir</text>
  <text class="title" x="1320" y="242">70%</text>
  <text class="tiny" x="1425" y="240">periode 8</text>

  <rect class="panel-soft" x="1790" y="150" width="650" height="120"/>
  <text class="label-strong" x="1820" y="190">File Terkait</text>
  <text class="small" x="1820" y="220">Frontend: project-manager.html, admin.html</text>
  <text class="small" x="1820" y="248">Backend: api_get_scurve.php, api_get_dashboard_stats.php</text>

  <!-- Chart panel -->
  <rect class="panel" x="160" y="320" width="2280" height="900"/>

  <!-- Chart plot area coordinates: x 340..2180, y 1050..330 -->
  <text class="label-strong" x="1290" y="370" text-anchor="middle">S-Curve Kumulatif Proyek</text>
  <text class="small" x="1290" y="398" text-anchor="middle">Periode mingguan: 6 Mei 2026 - 22 Juli 2026 | Sumbu Y menunjukkan progres kumulatif (%)</text>

  <!-- Grid horizontal -->
  <line class="grid" x1="340" y1="1050" x2="2180" y2="1050"/>
  <line class="grid" x1="340" y1="906" x2="2180" y2="906"/>
  <line class="grid" x1="340" y1="762" x2="2180" y2="762"/>
  <line class="grid" x1="340" y1="618" x2="2180" y2="618"/>
  <line class="grid" x1="340" y1="474" x2="2180" y2="474"/>
  <line class="grid" x1="340" y1="330" x2="2180" y2="330"/>

  <!-- Grid vertical -->
  <line class="grid" x1="340" y1="330" x2="340" y2="1050"/>
  <line class="grid" x1="500" y1="330" x2="500" y2="1050"/>
  <line class="grid" x1="660" y1="330" x2="660" y2="1050"/>
  <line class="grid" x1="820" y1="330" x2="820" y2="1050"/>
  <line class="grid" x1="980" y1="330" x2="980" y2="1050"/>
  <line class="grid" x1="1140" y1="330" x2="1140" y2="1050"/>
  <line class="grid" x1="1300" y1="330" x2="1300" y2="1050"/>
  <line class="grid" x1="1460" y1="330" x2="1460" y2="1050"/>
  <line class="grid" x1="1620" y1="330" x2="1620" y2="1050"/>
  <line class="grid" x1="1780" y1="330" x2="1780" y2="1050"/>
  <line class="grid" x1="1940" y1="330" x2="1940" y2="1050"/>
  <line class="grid" x1="2100" y1="330" x2="2100" y2="1050"/>

  <!-- Axes -->
  <line class="axis" x1="340" y1="1050" x2="2200" y2="1050"/>
  <line class="axis" x1="340" y1="1050" x2="340" y2="310"/>
  <text class="label" x="1280" y="1160" text-anchor="middle">Periode / Tanggal Target</text>
  <text class="label" x="115" y="690" transform="rotate(-90 115 690)" text-anchor="middle">Progres Kumulatif (%)</text>

  <!-- Y labels -->
  <text class="small" x="300" y="1055" text-anchor="end">0</text>
  <text class="small" x="300" y="911" text-anchor="end">20</text>
  <text class="small" x="300" y="767" text-anchor="end">40</text>
  <text class="small" x="300" y="623" text-anchor="end">60</text>
  <text class="small" x="300" y="479" text-anchor="end">80</text>
  <text class="small" x="300" y="335" text-anchor="end">100</text>

  <!-- X labels -->
  <text class="tiny" x="340" y="1086" text-anchor="middle">P1</text>
  <text class="tiny" x="340" y="1110" text-anchor="middle">06/05</text>
  <text class="tiny" x="500" y="1086" text-anchor="middle">P2</text>
  <text class="tiny" x="500" y="1110" text-anchor="middle">13/05</text>
  <text class="tiny" x="660" y="1086" text-anchor="middle">P3</text>
  <text class="tiny" x="660" y="1110" text-anchor="middle">20/05</text>
  <text class="tiny" x="820" y="1086" text-anchor="middle">P4</text>
  <text class="tiny" x="820" y="1110" text-anchor="middle">27/05</text>
  <text class="tiny" x="980" y="1086" text-anchor="middle">P5</text>
  <text class="tiny" x="980" y="1110" text-anchor="middle">03/06</text>
  <text class="tiny" x="1140" y="1086" text-anchor="middle">P6</text>
  <text class="tiny" x="1140" y="1110" text-anchor="middle">10/06</text>
  <text class="tiny" x="1300" y="1086" text-anchor="middle">P7</text>
  <text class="tiny" x="1300" y="1110" text-anchor="middle">17/06</text>
  <text class="tiny" x="1460" y="1086" text-anchor="middle">P8</text>
  <text class="tiny" x="1460" y="1110" text-anchor="middle">24/06</text>
  <text class="tiny" x="1620" y="1086" text-anchor="middle">P9</text>
  <text class="tiny" x="1620" y="1110" text-anchor="middle">01/07</text>
  <text class="tiny" x="1780" y="1086" text-anchor="middle">P10</text>
  <text class="tiny" x="1780" y="1110" text-anchor="middle">08/07</text>
  <text class="tiny" x="1940" y="1086" text-anchor="middle">P11</text>
  <text class="tiny" x="1940" y="1110" text-anchor="middle">15/07</text>
  <text class="tiny" x="2100" y="1086" text-anchor="middle">P12</text>
  <text class="tiny" x="2100" y="1110" text-anchor="middle">22/07</text>

  <!-- Lines -->
  <polyline class="plan" points="340,1028 500,992 660,942 820,870 980,776 1140,676 1300,560 1460,474 1620,402 1780,359 1940,337 2100,330"/>
  <polyline class="actual" points="340,1032 500,1007 660,964 820,906 980,820 1140,726 1300,632 1460,546"/>

  <!-- Markers planned -->
  <circle class="marker-plan" cx="340" cy="1028" r="7"/>
  <circle class="marker-plan" cx="500" cy="992" r="7"/>
  <circle class="marker-plan" cx="660" cy="942" r="7"/>
  <circle class="marker-plan" cx="820" cy="870" r="7"/>
  <circle class="marker-plan" cx="980" cy="776" r="7"/>
  <circle class="marker-plan" cx="1140" cy="676" r="7"/>
  <circle class="marker-plan" cx="1300" cy="560" r="7"/>
  <circle class="marker-plan" cx="1460" cy="474" r="7"/>
  <circle class="marker-plan" cx="1620" cy="402" r="7"/>
  <circle class="marker-plan" cx="1780" cy="359" r="7"/>
  <circle class="marker-plan" cx="1940" cy="337" r="7"/>
  <circle class="marker-plan" cx="2100" cy="330" r="7"/>

  <!-- Markers actual -->
  <circle class="marker-actual" cx="340" cy="1032" r="7"/>
  <circle class="marker-actual" cx="500" cy="1007" r="7"/>
  <circle class="marker-actual" cx="660" cy="964" r="7"/>
  <circle class="marker-actual" cx="820" cy="906" r="7"/>
  <circle class="marker-actual" cx="980" cy="820" r="7"/>
  <circle class="marker-actual" cx="1140" cy="726" r="7"/>
  <circle class="marker-actual" cx="1300" cy="632" r="7"/>
  <circle class="marker-actual" cx="1460" cy="546" r="7"/>

  <!-- Annotation -->
  <rect class="callout" x="1535" y="585" width="520" height="150"/>
  <text class="label-strong" x="1565" y="625">Anotasi Dampak Change Request</text>
  <text class="label" x="1565" y="657">Total delay dari CR berstatus APPROVED: 3 hari</text>
  <text class="small" x="1565" y="687">Dihitung dari SUM(change_requests.timeImpact)</text>
  <text class="small" x="1565" y="715">Filter: projectArea = PRJ-001 dan status = APPROVED</text>
  <path class="line" d="M 1535 655 C 1490 640, 1470 600, 1462 552"/>

  <!-- Legend -->
  <rect class="panel-soft" x="1810" y="430" width="360" height="112"/>
  <line class="legend-line-plan" x1="1840" y1="465" x2="1915" y2="465"/>
  <text class="label" x="1930" y="471">Rencana kumulatif</text>
  <line class="legend-line-actual" x1="1840" y1="505" x2="1915" y2="505"/>
  <text class="label" x="1930" y="511">Realisasi kumulatif</text>

  <!-- Data table mini -->
  <rect class="panel-soft" x="2200" y="430" width="190" height="505"/>
  <text class="label-strong" x="2220" y="465">Data ringkas</text>
  <text class="tiny" x="2220" y="500">P1  3 / 2.5</text>
  <text class="tiny" x="2220" y="530">P2  8 / 6</text>
  <text class="tiny" x="2220" y="560">P3  15 / 12</text>
  <text class="tiny" x="2220" y="590">P4  25 / 20</text>
  <text class="tiny" x="2220" y="620">P5  38 / 32</text>
  <text class="tiny" x="2220" y="650">P6  52 / 45</text>
  <text class="tiny" x="2220" y="680">P7  68 / 58</text>
  <text class="tiny" x="2220" y="710">P8  80 / 70</text>
  <text class="tiny" x="2220" y="740">P9  90 / -</text>
  <text class="tiny" x="2220" y="770">P10 96 / -</text>
  <text class="tiny" x="2220" y="800">P11 99 / -</text>
  <text class="tiny" x="2220" y="830">P12 100 / -</text>
  <text class="tiny" x="2220" y="880">format: rencana / realisasi</text>

  <!-- Bottom notes -->
  <rect class="note" x="160" y="1270" width="700" height="150"/>
  <text class="note-title" x="190" y="1305">Data Store</text>
  <text class="note-text" x="190" y="1335">project_scurve: periode_ke, tanggal_target, rencana_kumulatif, realisasi_kumulatif.</text>
  <text class="note-text" x="190" y="1365">change_requests: status, projectArea, timeImpact.</text>
  <text class="note-text" x="190" y="1395">projects: project_id, project_name, status, progress.</text>

  <rect class="note" x="950" y="1270" width="700" height="150"/>
  <text class="note-title" x="980" y="1305">File Project</text>
  <text class="note-text" x="980" y="1335">Backend: backend/api_get_scurve.php</text>
  <text class="note-text" x="980" y="1365">Dashboard: backend/api_get_dashboard_stats.php</text>
  <text class="note-text" x="980" y="1395">Frontend visual: project-manager.html dan admin.html</text>

  <rect class="note" x="1740" y="1270" width="700" height="150"/>
  <text class="note-title" x="1770" y="1305">Interpretasi Akademis</text>
  <text class="note-text" x="1770" y="1335">S-Curve menunjukkan deviasi progres kumulatif proyek terhadap baseline rencana.</text>
  <text class="note-text" x="1770" y="1365">Delay CR approved menjadi indikator dampak perubahan terhadap waktu.</text>
  <text class="note-text" x="1770" y="1395">Nilai delay bersifat pendukung dan tidak menggantikan analisis CPM detail.</text>
</svg>
